<?xml version="1.0" encoding="UTF-8"?>
<svg id="Layer_1" data-name="Layer 1" xmlns="http://www.w3.org/2000/svg" viewBox="0 0 573 161.25">
  <path d="M330.56,52.44c24.8-3.16,25.53,38.73,17.53,53.3-7.13,13.01-24.9,12.05-30.98-1.47s-6.49-49.29,13.45-51.83ZM331.3,56.13c-4.61.89-7.24,5.86-7.85,10.12-.99,6.85-.95,31.33.92,37.52,3.02,10.02,14.63,9.71,17.42.16,1.81-6.2,1.59-28.51.97-35.66-.54-6.3-3.86-13.59-11.45-12.14Z"/>
  <path d="M425.87,113.46l.39-4.47c8.8-11.45,34.12-30.19,23.46-46.55-3-4.61-8.95-6.19-13.88-3.63-7.42,3.85-2.37,4.44-.42,6.32,8.36,8.06-13.02,16.95-9.37-.41s39.31-15.37,35.71,10.22c-1.52,10.84-20.86,21.29-26.9,30.29l21.64-.82,1.65-8.06,3.67-.08-2.25,17.17h-33.71Z"/>
  <path d="M90.31,73.9c.21,6.96-7.29,3.85-11.98,4.49-1.49,9.97-3.08,20.21-5.48,30-1.97,8.04-5.32,23.11-15.88,23.06-11.31-.05-8.35-18.24,2.26-12.01,1.51,3.8-.3,5.62-2.63,8.21,2.42.28,3.61-.34,4.65-2.45l9.59-46.43-8.68-1.07-.26-2.59c.76-2.31,7.53-.69,9.6-1.27,1.75-8.65,3.39-24.52,14.95-24.88,11.96-.37,10.06,15.69.63,12.86-3.32-1-2.78-7.71.97-8.43-4.01-3.06-5.02,2.63-5.75,5.46-1.23,4.72-1.86,10.2-2.49,15.07h10.49Z"/>
  <path d="M254.34,51.5v41.81h8.24s0,4.48,0,4.48h-8.25s.33,9.75.33,9.75l7.92.7v4.48h-25.47v-4.48s7.91-.7,7.91-.7l.33-9.75h-23.22l.58-5.02,27.65-41.12,3.98-.14ZM246.1,93.31v-28.37l-18.73,28.37h18.73Z"/>
  <path d="M299.28,51.5v41.81c4.46.38,10.11-2.06,8.99,4.48h-9s.86,10.35.86,10.35l7.43.43.7,4.15h-26.22v-4.48s8.66-.7,8.66-.7l.33-9.75h-23.97l.41-4.45,27.46-41.68,4.35-.16ZM291.79,64.94l-19.47,28.37h19.47v-28.37Z"/>
  <path d="M130.38,79.12h57.67c.13,0,1.74,1.57,1.81,1.97.23.77-1.62,2.51-1.81,2.51h-57.67c-1.23,0-1.8-3.75,0-4.48Z"/>
  <path d="M502.27,97.79c2.05-8.34,15.64-13.72,12.39-23.93-1.32-4.16-7.1-5.14-9.4-1.07l2.16,1.57c2.35,6.75-10.25,5.02-3.31-3.46,4.49-5.48,14.52-3.37,15.95,3.55,1.94,9.39-8.23,12.38-12.56,18.86l9.27-.09c1.89-.66.5-4.76,3.46-4.38l-.74,8.95h-17.23Z"/>
  <rect x="129.25" y="97.04" width="59.92" height="3.73"/>
  <path d="M506.02,48.51c3.37,1.76,4.15-7.6,6.73-5.22.93.86-3.3,7.64-7.05,7.45-8.86-.47,2.57-15.7-1.13-18.33-10.25-2.56-8.35,14.11-11.65,17.61-.88.93-2.19,1.22-3.04,0-1.51-2.14,3.56-13.13,3.37-16.13-.08-1.28-.91-2.02-2.2-1.81l-2.63,5.95c-2.12-1.38-.49-4.61.7-6,4.41-5.14,7.2.65,8.28.66,1,0,7.34-5.75,10.94-1.05,2.69,5.74-2.19,11.09-2.31,16.86Z"/>
  <polygon points="491.03 67.92 491.03 94.43 492.27 95.43 497.03 95.55 497.02 97.79 481.29 97.79 481.29 95.55 486.55 95.12 486.53 72.41 481.3 73.15 481.3 70.93 491.03 67.92"/>
  <rect x="478.3" y="58.97" width="44.94" height="2.99"/>
  <path d="M387.47,84.46c6.44-1.17,9.79,9.4,2.65,10.94-8.7,1.87-9.14-9.76-2.65-10.94Z"/>
</svg>