<?xml version="1.0" encoding="UTF-8"?>
<svg id="Layer_1" data-name="Layer 1" xmlns="http://www.w3.org/2000/svg" viewBox="0 0 384.75 126.75">
  <path d="M30,78.29c-.42-3.17,3.71-1.76,4.42-2.32.83-.66,4.87-18.35,5.21-20.55.05-.33.19-.64.12-.98-1.74.1-3.97.08-3.76-2.24h16.88c.34,0,2.47,1.14,3,1.49,7.78,5.27,3,17.44-3.42,21.95-.61.43-4.55,2.66-4.83,2.66h-17.62ZM38.25,76.04c7.92.47,12.88.25,15.78-7.79,3.69-10.26,1.14-15.47-10.49-13.79l-5.28,21.58Z"/>
  <path d="M172.5,76.79c3.29.44,2.48-4.65,5.24-4.47,1.13,4.76-6.42,9.09-8.66,4.46-1.22-2.52,5.15-12.08,1.43-13.32-7.89-2.33-6.82,14.83-10.4,15.57-1.11.1-1.77-.75-1.84-1.79-.19-3.15,7-16.07-1-13.73-4.91,1.44-4.5,14.86-7.67,15.51-1.05.21-1.77-.8-1.83-1.78-.14-2.27,3.81-12.91,2.96-13.87-2.39-.14-2.89,2.69-3.02,4.46-4.12,1.32-1.05-4.25-.01-5.41,2.9-3.23,5.01.59,6.54.83,1.08.17,3.43-2.55,6.44-2,1.72.31,3.68,2.83,3.93,2.83.5,0,3.53-4.54,8.33-2.29,5.44,2.55-.91,10.75-.45,14.99Z"/>
  <path d="M311.81,27.77c13.97-3.58,13.85,24.37,4.27,25.87-13.76,2.15-12.22-23.83-4.27-25.87ZM313.28,29.18c-3.8,1.06-3.2,14.71-2.8,18.19.65,5.63,6.1,6.42,7.36,2.06,1.13-3.89,2.24-22.16-4.56-20.25Z"/>
  <path d="M331.3,27.76c6.24-1.26,9.19,2.85,9.87,8.49.92,7.65.26,19.75-10.63,17.28-7.46-1.69-8.5-23.89.77-25.76ZM335.83,51.27c1.97-2.03,3.97-22.48-3.16-22.23-4.64.41-3.95,15.52-3.37,19.01.52,3.11,3.89,5.94,6.53,3.22Z"/>
  <path d="M117.75,76.8c7.7,1.17,6.07-9.07,8.42-13.63,1.24-2.4,3.69-1.53,3.44,1.12-.22,2.44-3.43,14.36-4.54,16.44-2.37,4.45-9.73,8.24-13.23,3.01-1.43-5.01,7.67-5.47,2.9.51,4.44.74,6.59-1.96,7.5-5.95-11.82,2.5-7.47-8.21-5.25-14.91-4.61-1-2.21,6.19-6,4.09.99-4.15,5.15-8.95,8.9-4.34l-2.14,13.67Z"/>
  <path d="M293.04,27.74c15.82-3.54,12.73,33.41-1.7,25.23-6.06-3.43-6.33-23.44,1.7-25.23ZM294.55,29.21c-5.14.75-4.28,18.18-2.38,21.46s5.87,1.58,6.76-2.15c.91-3.81,2.03-20.24-4.38-19.31Z"/>
  <path d="M309.01,81.27l-.76,6.71,4.49,1.11-5.17,1.2c-1.6,5.65-1.66,16.94-6.44,20.81-5.85,4.74-8.24-5.74-2.33-4.51.7.15,0,2.33,1.94,1.52l3.01-17.89-3.74-1.12c.9-1.81,3.78-.7,4.41-1.2,1.09-.87.16-11.31,7.16-10.37,4.97.66,2.29,9.52-2.58,3.74Z"/>
  <path d="M105,76.79l4.49-4.47c.37,2.73-1.19,5.26-3.53,6.61-2.06.52-3.35-1.82-4.35-1.88-1.27-.08-2.98,2.36-5.81,1.87-7.05-1.23-4.62-12.93.68-16.18,4.26-2.61,6.06-.46,10.41-.16l-1.89,14.21ZM102.65,63.47c-5.32-3.34-8.68,9.8-7.4,13.33,6.1,2.88,9.52-11.99,7.4-13.33Z"/>
  <path d="M278.25,27.59v23.11c2.27-.04,5.41-.61,5.25,2.24h-13.5v-2.23s4.5,0,4.5,0v-19.39s-4,.67-4,.67l-1.25-2.16c3.62.78,5.81-1.48,9-2.24Z"/>
  <path d="M191.25,67.1c-.9-.87,1.67-3.6,1.5-3.72l-5.14.1-.91,3.16c.19,1.21,5.59.67,7,3.63,2.99,6.27-8.57,11.75-12.27,6.97-2.4-3.11.69-7.11,3.82-3.78l-1.5,3.33c1.83-.05,5.72.46,6.74-1.32,2.66-4.62-5.56-3.25-6.61-6.66-1.65-5.36,5.26-9.89,9.6-6.54s-.8,6.19-2.23,4.83Z"/>
  <rect x="266.25" y="67.85" width="77.25" height="1.49"/>
  <path d="M88.49,51.45c.87.99-5.24,19.83-5.27,23.47-.01,1.53-.44,2.18,1.52,1.88l1.9-4.47c3.06.42-.44,5.33-1.47,6.02-2.15,1.43-5.38-.44-5.68-2.7-.55-4.12,4.49-16.07,5.26-20.85l-3-.36v-2.23s6.75-.75,6.75-.75Z"/>
  <path d="M66.11,76.69c1.89.24,4.1.34,5.94-.22.75-.23,5.89-5.08,4.47-.79-.15.45-4.5,2.61-5.41,2.85-12.73,3.33-12.65-15.6-.03-17.26,3.48-.46,6.77,2.34,5.05,5.84-1.54,3.15-9.66,2.44-10.56,3.67l.53,5.91ZM74.25,63.38c-4.02-.48-7.66.68-7.5,5.21,3.72-.98,8.18.03,7.5-5.21Z"/>
  <path d="M143.25,49.96c-7.32,8.54-7.62,21.66-3.89,31.82l3.51,6.2c-10.32-5.26-11.12-22.47-6.5-31.83.69-1.39,4.93-7.7,6.88-6.2Z"/>
  <path d="M198.75,87.98c1.3-3.02,3.46-5.25,4.54-8.53,3.14-9.53,1.77-21.16-4.53-29.12,3.1-1.27,6.57,5.55,7.52,8.18,2.98,8.27,2.26,21.96-4.9,27.99-.85.71-1.22,1.8-2.62,1.49Z"/>
  <path d="M249.75,64.12c1.27.95-.09,1.36-1.12,1.49-3.55.44-23.87,1.69-25.13,0-.06-.48,1-1.48,1.12-1.48h25.12Z"/>
  <path d="M249.75,71.58v1.49h-26.25c-.06-.48.99-1.49,1.12-1.49h25.12Z"/>
</svg>